<svg width="856" height="200" viewBox="0 0 856 200" fill="none" xmlns="http://www.w3.org/2000/svg">
<path d="M506.759 131.495V89.061C506.759 86.2131 506.403 83.7686 505.691 81.7276C504.979 79.6392 503.792 78.0253 502.131 76.8862C500.517 75.747 498.31 75.1774 495.509 75.1774C492.946 75.1774 490.715 75.6758 488.817 76.6726C486.918 77.6694 485.376 79.0221 484.189 80.7309C483.002 82.3922 482.124 84.2908 481.555 86.4267L479.561 76.459H481.412C482.172 73.4687 483.406 70.7394 485.114 68.2712C486.823 65.7555 489.149 63.762 492.092 62.2906C495.082 60.8192 498.856 60.0834 503.412 60.0834C508.491 60.0834 512.597 61.0802 515.73 63.0738C518.91 65.0198 521.259 67.9627 522.778 71.9023C524.297 75.7945 525.057 80.6359 525.057 86.4267V131.495H506.759ZM420.68 131.495V61.6498H438.907L438.195 79.3781L438.907 80.1613V131.495H420.68ZM463.755 131.495V89.061C463.755 86.2131 463.399 83.7686 462.687 81.7276C461.975 79.6392 460.788 78.0253 459.127 76.8862C457.513 75.747 455.306 75.1774 452.506 75.1774C449.895 75.1774 447.641 75.6758 445.742 76.6726C443.891 77.6694 442.348 79.0221 441.114 80.7309C439.927 82.3922 439.049 84.2908 438.48 86.4267L435.632 76.459H439.049C439.761 73.3737 440.948 70.597 442.609 68.1288C444.318 65.6606 446.62 63.7145 449.515 62.2906C452.411 60.8192 456.018 60.0834 460.338 60.0834C466.84 60.0834 471.729 61.7447 475.004 65.0673C478.327 68.3899 480.415 73.2313 481.27 79.5917C481.46 80.541 481.626 81.6564 481.768 82.938C481.911 84.1721 481.982 85.335 481.982 86.4267V131.495H463.755ZM580.711 131.495L581.352 114.408L580.854 112.841V90.9834L580.782 87.8507C580.782 83.294 579.525 79.9477 577.009 77.8117C574.541 75.6758 570.482 74.6078 564.834 74.6078C560.04 74.6078 555.531 75.2486 551.306 76.5302C547.129 77.7643 543.261 79.212 539.701 80.8733L541.267 66.3489C543.356 65.2572 545.729 64.2367 548.387 63.2873C551.093 62.2906 554.107 61.4837 557.429 60.8666C560.752 60.2496 564.336 59.941 568.18 59.941C573.876 59.941 578.694 60.6293 582.633 62.0058C586.573 63.3348 589.706 65.2572 592.032 67.7728C594.405 70.2885 596.114 73.3025 597.158 76.815C598.202 80.2799 598.724 84.1246 598.724 88.3491V131.495H580.711ZM557.857 133.133C550.927 133.133 545.634 131.4 541.979 127.935C538.372 124.47 536.568 119.534 536.568 113.126V111.132C536.568 104.345 538.657 99.3373 542.834 96.1096C547.011 92.8345 553.632 90.5799 562.698 89.3458L582.491 86.6403L583.559 98.388L565.332 101.022C561.345 101.544 558.497 102.494 556.789 103.87C555.127 105.247 554.297 107.264 554.297 109.922V110.634C554.297 113.245 555.104 115.286 556.717 116.757C558.379 118.181 560.966 118.893 564.478 118.893C567.611 118.893 570.292 118.395 572.523 117.398C574.754 116.401 576.582 115.096 578.006 113.482C579.477 111.821 580.521 109.97 581.138 107.929L583.701 116.971H580.569C579.809 119.961 578.575 122.69 576.866 125.158C575.205 127.579 572.856 129.525 569.818 130.997C566.78 132.421 562.793 133.133 557.857 133.133ZM637.406 133.204C631.805 133.204 626.821 132.658 622.454 131.566C618.135 130.522 614.456 129.335 611.419 128.006L609.781 112.2C613.388 113.862 617.352 115.309 621.671 116.543C626.038 117.778 630.832 118.395 636.053 118.395C640.61 118.395 643.909 117.825 645.95 116.686C647.991 115.499 649.011 113.743 649.011 111.417V110.99C649.011 109.424 648.537 108.142 647.587 107.145C646.685 106.149 645.072 105.247 642.746 104.44C640.42 103.585 637.145 102.684 632.92 101.734C627.082 100.358 622.454 98.7677 619.037 96.964C615.667 95.1129 613.246 92.8583 611.775 90.2002C610.303 87.4947 609.567 84.267 609.567 80.5173V79.8765C609.567 73.2788 611.917 68.3187 616.616 64.9961C621.315 61.6261 628.269 59.941 637.477 59.941C642.936 59.941 647.753 60.4869 651.93 61.5786C656.155 62.6228 659.667 63.8807 662.468 65.3521L664.105 79.8765C660.783 78.3101 657.057 77.0048 652.927 75.9606C648.798 74.8689 644.36 74.323 639.613 74.323C636.528 74.323 634.083 74.5841 632.28 75.1062C630.523 75.5809 629.266 76.2691 628.506 77.171C627.747 78.0728 627.367 79.1645 627.367 80.4461V80.8021C627.367 82.226 627.77 83.4601 628.577 84.5044C629.432 85.5486 630.974 86.4979 633.205 87.3523C635.436 88.1592 638.569 89.0373 642.603 89.9866C648.489 91.2207 653.212 92.6684 656.772 94.3297C660.332 95.991 662.919 98.1269 664.532 100.738C666.146 103.301 666.953 106.671 666.953 110.848V111.702C666.953 118.917 664.509 124.304 659.62 127.864C654.731 131.424 647.326 133.204 637.406 133.204ZM704.994 132.99C699.061 132.99 694.314 132.112 690.754 130.356C687.242 128.552 684.703 125.847 683.136 122.239C681.57 118.632 680.787 114.194 680.787 108.925V68.2H698.871V106.22C698.871 110.017 699.725 112.817 701.434 114.621C703.19 116.377 706.252 117.255 710.619 117.255C713.182 117.255 715.65 116.994 718.023 116.472C720.396 115.903 722.58 115.167 724.573 114.265L723.007 129.502C720.634 130.593 717.905 131.448 714.819 132.065C711.782 132.682 708.506 132.99 704.994 132.99ZM670.677 76.6014V62.2194H723.933L722.366 76.6014H670.677ZM681 63.5721L680.929 45.0607L699.085 43.2095L698.373 63.5721H681ZM766.663 133.204C754.701 133.204 745.802 130.451 739.963 124.945C734.125 119.439 731.206 111.465 731.206 101.022V91.909C731.206 81.5615 733.935 73.6111 739.394 68.0576C744.852 62.5042 752.779 59.7274 763.174 59.7274C770.199 59.7274 776.061 60.9615 780.76 63.4297C785.459 65.8979 788.971 69.4104 791.297 73.9671C793.67 78.4763 794.857 83.8873 794.857 90.2002V92.6921C794.857 94.4009 794.762 96.1571 794.572 97.9608C794.43 99.717 794.216 101.378 793.931 102.945H777.413C777.556 100.334 777.627 97.8659 777.627 95.5401C777.675 93.1668 777.698 91.0308 777.698 89.1322C777.698 85.8571 777.176 83.0804 776.132 80.8021C775.088 78.4763 773.498 76.72 771.362 75.5334C769.226 74.3468 766.496 73.7535 763.174 73.7535C758.285 73.7535 754.678 75.1062 752.352 77.8117C750.026 80.5173 748.863 84.362 748.863 89.3458V95.8248L748.934 97.8896V103.372C748.934 105.555 749.267 107.573 749.931 109.424C750.643 111.275 751.806 112.889 753.42 114.265C755.034 115.594 757.169 116.638 759.828 117.398C762.533 118.157 765.903 118.537 769.938 118.537C774.304 118.537 778.458 118.062 782.397 117.113C786.384 116.116 790.158 114.787 793.718 113.126L792.151 127.508C788.971 129.264 785.222 130.641 780.902 131.637C776.63 132.682 771.884 133.204 766.663 133.204ZM740.889 102.945V90.841H790.229V102.945H740.889ZM825.409 90.9122L820.781 78.7373H825.195C826.477 73.0889 828.802 68.6509 832.173 65.4233C835.543 62.1956 840.218 60.5818 846.199 60.5818C847.433 60.5818 848.548 60.6768 849.545 60.8666C850.542 61.009 851.443 61.1989 852.25 61.4362L853.247 79.6629C852.203 79.3306 850.993 79.0933 849.616 78.9509C848.24 78.7611 846.792 78.6661 845.273 78.6661C840.432 78.6661 836.302 79.7341 832.885 81.87C829.514 84.006 827.023 87.02 825.409 90.9122ZM807.68 131.495V61.6498H825.053L824.27 83.0804L825.907 83.7212V131.495H807.68Z" fill="white"/>
<path d="M213.136 133.4C208.405 133.4 204.19 132.579 200.489 130.938C196.788 129.265 193.86 126.803 191.704 123.553C189.58 120.27 188.518 116.183 188.518 111.292C188.518 107.173 189.274 103.713 190.786 100.914C192.299 98.1139 194.358 95.8613 196.965 94.1557C199.572 92.4502 202.532 91.1629 205.847 90.2941C209.194 89.4252 212.701 88.8138 216.37 88.4598C220.682 88.0092 224.158 87.5909 226.796 87.2047C229.435 86.7864 231.35 86.175 232.541 85.3704C233.731 84.5659 234.327 83.3752 234.327 81.7984V81.5088C234.327 78.4516 233.361 76.0864 231.43 74.413C229.532 72.7396 226.829 71.9029 223.321 71.9029C219.62 71.9029 216.676 72.7235 214.487 74.3647C212.299 75.9737 210.851 78.0011 210.143 80.4468L191.124 78.9022C192.09 74.3969 193.988 70.503 196.82 67.2206C199.652 63.906 203.305 61.3637 207.778 59.5938C212.283 57.7917 217.496 56.8907 223.417 56.8907C227.537 56.8907 231.479 57.3734 235.244 58.3388C239.041 59.3042 242.404 60.8006 245.332 62.828C248.293 64.8553 250.626 67.462 252.332 70.6478C254.037 73.8015 254.89 77.5827 254.89 81.9915V132H235.389V121.718H234.809C233.619 124.035 232.026 126.079 230.031 127.849C228.035 129.587 225.638 130.954 222.838 131.952C220.039 132.917 216.804 133.4 213.136 133.4ZM219.025 119.208C222.05 119.208 224.721 118.613 227.038 117.422C229.355 116.199 231.173 114.558 232.492 112.499C233.812 110.439 234.471 108.106 234.471 105.499V97.6312C233.828 98.0496 232.943 98.4357 231.817 98.7897C230.722 99.1115 229.483 99.4173 228.1 99.7069C226.716 99.9643 225.332 100.206 223.948 100.431C222.565 100.624 221.31 100.801 220.183 100.962C217.77 101.316 215.662 101.879 213.86 102.651C212.058 103.424 210.658 104.47 209.66 105.789C208.663 107.076 208.164 108.685 208.164 110.616C208.164 113.416 209.178 115.556 211.205 117.036C213.264 118.484 215.871 119.208 219.025 119.208ZM263.074 132V33.1414H283.637V70.3099H284.265C285.166 68.3147 286.469 66.2874 288.175 64.2278C289.912 62.1361 292.165 60.3983 294.933 59.0146C297.732 57.5986 301.208 56.8907 305.359 56.8907C310.765 56.8907 315.753 58.3066 320.323 61.1385C324.893 63.9382 328.545 68.1699 331.281 73.8337C334.016 79.4653 335.384 86.5289 335.384 95.0246C335.384 103.295 334.048 110.278 331.377 115.974C328.738 121.638 325.134 125.934 320.564 128.862C316.027 131.759 310.942 133.207 305.311 133.207C301.32 133.207 297.925 132.547 295.126 131.228C292.358 129.908 290.089 128.251 288.32 126.256C286.55 124.228 285.198 122.185 284.265 120.125H283.348V132H263.074ZM283.203 94.9281C283.203 99.3368 283.814 103.182 285.037 106.465C286.26 109.747 288.03 112.306 290.347 114.14C292.664 115.942 295.48 116.843 298.794 116.843C302.141 116.843 304.973 115.926 307.29 114.092C309.607 112.225 311.361 109.651 312.551 106.368C313.774 103.054 314.386 99.2403 314.386 94.9281C314.386 90.6481 313.79 86.8829 312.6 83.6327C311.409 80.3825 309.655 77.8402 307.338 76.0059C305.021 74.1716 302.173 73.2545 298.794 73.2545C295.448 73.2545 292.616 74.1394 290.299 75.9094C288.014 77.6793 286.26 80.1894 285.037 83.4396C283.814 86.6898 283.203 90.5193 283.203 94.9281ZM374.449 133.448C366.854 133.448 360.321 131.839 354.851 128.621C349.412 125.371 345.229 120.866 342.3 115.105C339.404 109.345 337.956 102.716 337.956 95.2177C337.956 87.6231 339.42 80.9617 342.349 75.2336C345.309 69.4732 349.509 64.9841 354.947 61.766C360.386 58.5158 366.854 56.8907 374.352 56.8907C380.82 56.8907 386.484 58.0652 391.343 60.4144C396.203 62.7636 400.048 66.0621 402.88 70.3099C405.712 74.5578 407.273 79.5458 407.562 85.2739H388.158C387.611 81.5731 386.162 78.5964 383.813 76.3438C381.496 74.059 378.455 72.9166 374.69 72.9166C371.504 72.9166 368.721 73.7854 366.339 75.5232C363.99 77.2288 362.156 79.7228 360.836 83.0052C359.517 86.2876 358.857 90.2619 358.857 94.9281C358.857 99.6586 359.501 103.681 360.788 106.996C362.107 110.31 363.958 112.837 366.339 114.574C368.721 116.312 371.504 117.181 374.69 117.181C377.039 117.181 379.147 116.698 381.014 115.733C382.912 114.767 384.473 113.368 385.696 111.533C386.951 109.667 387.771 107.43 388.158 104.824H407.562C407.241 110.487 405.696 115.475 402.928 119.788C400.193 124.068 396.412 127.414 391.585 129.828C386.758 132.241 381.046 133.448 374.449 133.448Z" fill="#F85201"/>
<path d="M199.356 188.793V156.562H218.808V160.024H203.259V170.915H217.801V174.377H203.259V185.331H219.06V188.793H199.356ZM264.843 156.562H269.501L280.454 183.317H280.832L291.786 156.562H296.444V188.793H292.793V164.305H292.478L282.406 188.793H278.881L268.808 164.305H268.494V188.793H264.843V156.562ZM343.269 188.793V156.562H354.538C356.783 156.562 358.635 156.95 360.093 157.727C361.552 158.493 362.637 159.526 363.351 160.827C364.064 162.118 364.421 163.55 364.421 165.124C364.421 166.508 364.174 167.652 363.681 168.554C363.199 169.457 362.559 170.17 361.761 170.695C360.974 171.219 360.119 171.608 359.196 171.859V172.174C360.182 172.237 361.174 172.583 362.171 173.213C363.167 173.842 364.001 174.745 364.673 175.92C365.344 177.095 365.68 178.532 365.68 180.232C365.68 181.848 365.313 183.301 364.578 184.591C363.844 185.882 362.685 186.905 361.1 187.66C359.516 188.416 357.454 188.793 354.915 188.793H343.269ZM347.172 185.331H354.915C357.465 185.331 359.275 184.838 360.345 183.852C361.426 182.855 361.966 181.648 361.966 180.232C361.966 179.141 361.688 178.134 361.132 177.21C360.576 176.276 359.784 175.532 358.755 174.975C357.727 174.409 356.51 174.126 355.104 174.126H347.172V185.331ZM347.172 170.726H354.412C355.587 170.726 356.647 170.495 357.591 170.034C358.546 169.572 359.301 168.922 359.857 168.082C360.424 167.243 360.707 166.257 360.707 165.124C360.707 163.707 360.214 162.506 359.228 161.52C358.241 160.523 356.678 160.024 354.538 160.024H347.172V170.726ZM412.415 188.793H408.323L420.158 156.562H424.187L436.022 188.793H431.93L422.298 161.661H422.046L412.415 188.793ZM413.926 176.203H430.419V179.665H413.926V176.203ZM480.042 188.793V156.562H483.945V185.331H498.927V188.793H480.042ZM547.326 188.793H543.234L555.069 156.562H559.098L570.933 188.793H566.841L557.209 161.661H556.958L547.326 188.793ZM548.837 176.203H565.33V179.665H548.837V176.203ZM635.471 166.634C635.125 165.575 634.668 164.625 634.102 163.786C633.546 162.936 632.88 162.212 632.103 161.614C631.337 161.016 630.466 160.56 629.491 160.245C628.515 159.93 627.445 159.773 626.28 159.773C624.371 159.773 622.634 160.266 621.071 161.252C619.508 162.238 618.264 163.691 617.341 165.611C616.418 167.531 615.956 169.887 615.956 172.678C615.956 175.469 616.423 177.824 617.357 179.744C618.291 181.664 619.555 183.117 621.15 184.103C622.744 185.09 624.539 185.583 626.532 185.583C628.379 185.583 630.005 185.189 631.411 184.402C632.827 183.605 633.929 182.482 634.716 181.035C635.513 179.576 635.912 177.861 635.912 175.888L637.108 176.14H627.413V172.678H639.689V176.14C639.689 178.794 639.122 181.103 637.989 183.065C636.866 185.027 635.314 186.548 633.331 187.629C631.358 188.699 629.092 189.234 626.532 189.234C623.678 189.234 621.171 188.562 619.009 187.219C616.858 185.877 615.18 183.967 613.973 181.491C612.777 179.015 612.179 176.077 612.179 172.678C612.179 170.128 612.52 167.836 613.202 165.8C613.894 163.754 614.87 162.013 616.129 160.575C617.388 159.138 618.878 158.036 620.599 157.27C622.319 156.504 624.213 156.122 626.28 156.122C627.98 156.122 629.564 156.379 631.033 156.893C632.512 157.396 633.829 158.115 634.983 159.049C636.148 159.972 637.118 161.079 637.895 162.369C638.671 163.649 639.206 165.071 639.5 166.634H635.471ZM685.373 188.793V156.562H704.825V160.024H689.276V170.915H703.818V174.377H689.276V185.331H705.077V188.793H685.373ZM776.418 156.562V188.793H772.641L755.077 163.487H754.762V188.793H750.859V156.562H754.637L772.263 181.932H772.578V156.562H776.418ZM840.854 164.62C840.665 163.025 839.899 161.787 838.556 160.906C837.213 160.024 835.566 159.584 833.614 159.584C832.187 159.584 830.939 159.815 829.869 160.276C828.809 160.738 827.98 161.373 827.382 162.181C826.795 162.988 826.501 163.906 826.501 164.935C826.501 165.795 826.705 166.535 827.115 167.154C827.534 167.762 828.069 168.271 828.72 168.68C829.37 169.079 830.052 169.409 830.766 169.672C831.479 169.924 832.135 170.128 832.733 170.286L836.006 171.167C836.846 171.387 837.78 171.691 838.808 172.08C839.846 172.468 840.838 172.998 841.782 173.669C842.737 174.33 843.524 175.18 844.143 176.219C844.762 177.257 845.071 178.532 845.071 180.043C845.071 181.785 844.615 183.358 843.702 184.764C842.8 186.17 841.478 187.288 839.736 188.117C838.005 188.945 835.901 189.36 833.425 189.36C831.117 189.36 829.118 188.987 827.429 188.242C825.751 187.498 824.429 186.459 823.463 185.126C822.509 183.794 821.968 182.246 821.842 180.484H825.871C825.976 181.701 826.385 182.708 827.099 183.505C827.823 184.292 828.736 184.88 829.837 185.268C830.949 185.646 832.145 185.835 833.425 185.835C834.915 185.835 836.253 185.593 837.439 185.111C838.624 184.617 839.563 183.936 840.256 183.065C840.948 182.183 841.294 181.155 841.294 179.98C841.294 178.91 840.995 178.039 840.397 177.368C839.799 176.696 839.012 176.151 838.037 175.731C837.061 175.311 836.006 174.944 834.873 174.629L830.907 173.496C828.389 172.772 826.396 171.739 824.927 170.396C823.458 169.053 822.724 167.295 822.724 165.124C822.724 163.319 823.212 161.745 824.187 160.402C825.174 159.049 826.495 158 828.153 157.255C829.821 156.499 831.684 156.122 833.74 156.122C835.818 156.122 837.664 156.494 839.28 157.239C840.896 157.973 842.176 158.981 843.12 160.261C844.075 161.541 844.578 162.994 844.631 164.62H840.854Z" fill="#686868"/>
<path d="M144.254 112.603C139.607 87.813 137.28 75.4143 128.455 68.091C119.639 60.7678 107.026 60.7678 81.8071 60.7678H76.0804C50.854 60.7678 38.2487 60.7678 29.4243 68.091C20.5998 75.4143 18.2726 87.813 13.6181 112.603C7.08907 147.464 3.81663 164.89 13.348 176.375C22.8794 187.861 40.5998 187.853 76.0724 187.853H81.7992C117.264 187.853 135 187.853 144.532 176.375C150.06 169.703 151.283 161.046 150.052 148.139" stroke="white" stroke-width="14.7773" stroke-linecap="round"/>
<path d="M56.3906 92.5391C58.0316 97.1898 61.0748 101.217 65.1007 104.066C69.1266 106.914 73.937 108.444 78.8688 108.444C83.8006 108.444 88.611 106.914 92.6369 104.066C96.6628 101.217 99.706 97.1898 101.347 92.5391" stroke="#F85201" stroke-width="14.7773" stroke-linecap="round"/>
</svg>
