<svg width="856" height="200" viewBox="0 0 856 200" fill="none" xmlns="http://www.w3.org/2000/svg">
<path d="M506.759 131.495V89.061C506.759 86.2131 506.403 83.7686 505.691 81.7276C504.979 79.6391 503.792 78.0253 502.131 76.8861C500.517 75.7469 498.31 75.1774 495.509 75.1774C492.946 75.1774 490.715 75.6757 488.817 76.6725C486.918 77.6693 485.376 79.0221 484.189 80.7308C483.002 82.3921 482.124 84.2907 481.555 86.4266L479.561 76.4589H481.412C482.172 73.4686 483.406 70.7393 485.114 68.2711C486.823 65.7555 489.149 63.7619 492.092 62.2905C495.082 60.8191 498.856 60.0834 503.412 60.0834C508.491 60.0834 512.597 61.0802 515.73 63.0737C518.91 65.0198 521.259 67.9626 522.778 71.9023C524.297 75.7944 525.057 80.6359 525.057 86.4266V131.495H506.759ZM420.68 131.495V61.6497H438.907L438.195 79.378L438.907 80.1612V131.495H420.68ZM463.755 131.495V89.061C463.755 86.2131 463.399 83.7686 462.687 81.7276C461.975 79.6391 460.788 78.0253 459.127 76.8861C457.513 75.7469 455.306 75.1774 452.506 75.1774C449.895 75.1774 447.641 75.6757 445.742 76.6725C443.891 77.6693 442.348 79.0221 441.114 80.7308C439.927 82.3921 439.049 84.2907 438.48 86.4266L435.632 76.4589H439.049C439.761 73.3737 440.948 70.597 442.609 68.1288C444.318 65.6606 446.62 63.7145 449.515 62.2905C452.411 60.8191 456.018 60.0834 460.338 60.0834C466.84 60.0834 471.729 61.7447 475.004 65.0672C478.327 68.3898 480.415 73.2313 481.27 79.5916C481.46 80.5409 481.626 81.6564 481.768 82.9379C481.911 84.172 481.982 85.3349 481.982 86.4266V131.495H463.755ZM580.711 131.495L581.352 114.407L580.854 112.841V90.9833L580.782 87.8506C580.782 83.2939 579.525 79.9476 577.009 77.8117C574.541 75.6757 570.482 74.6078 564.834 74.6078C560.04 74.6078 555.531 75.2486 551.306 76.5301C547.129 77.7642 543.261 79.2119 539.701 80.8732L541.267 66.3488C543.356 65.2571 545.729 64.2366 548.387 63.2873C551.093 62.2905 554.107 61.4836 557.429 60.8666C560.752 60.2495 564.336 59.941 568.18 59.941C573.876 59.941 578.694 60.6292 582.633 62.0057C586.573 63.3348 589.706 65.2571 592.032 67.7728C594.405 70.2884 596.114 73.3025 597.158 76.8149C598.202 80.2799 598.724 84.1246 598.724 88.349V131.495H580.711ZM557.857 133.133C550.927 133.133 545.634 131.4 541.979 127.935C538.372 124.47 536.568 119.534 536.568 113.126V111.132C536.568 104.345 538.657 99.3372 542.834 96.1096C547.011 92.8345 553.632 90.5799 562.698 89.3458L582.491 86.6402L583.559 98.3879L565.332 101.022C561.345 101.544 558.497 102.494 556.789 103.87C555.127 105.247 554.297 107.264 554.297 109.922V110.634C554.297 113.245 555.104 115.286 556.717 116.757C558.379 118.181 560.966 118.893 564.478 118.893C567.611 118.893 570.292 118.395 572.523 117.398C574.754 116.401 576.582 115.096 578.006 113.482C579.477 111.821 580.521 109.969 581.138 107.928L583.701 116.971H580.569C579.809 119.961 578.575 122.69 576.866 125.158C575.205 127.579 572.856 129.525 569.818 130.997C566.78 132.421 562.793 133.133 557.857 133.133ZM637.406 133.204C631.805 133.204 626.821 132.658 622.454 131.566C618.135 130.522 614.456 129.335 611.419 128.006L609.781 112.2C613.388 113.862 617.352 115.309 621.671 116.543C626.038 117.778 630.832 118.395 636.053 118.395C640.61 118.395 643.909 117.825 645.95 116.686C647.991 115.499 649.011 113.743 649.011 111.417V110.99C649.011 109.424 648.537 108.142 647.587 107.145C646.685 106.148 645.072 105.247 642.746 104.44C640.42 103.585 637.145 102.684 632.92 101.734C627.082 100.358 622.454 98.7676 619.037 96.964C615.667 95.1128 613.246 92.8582 611.775 90.2001C610.303 87.4946 609.567 84.267 609.567 80.5172V79.8764C609.567 73.2787 611.917 68.3186 616.616 64.996C621.315 61.626 628.269 59.941 637.477 59.941C642.936 59.941 647.753 60.4868 651.93 61.5785C656.155 62.6228 659.667 63.8806 662.468 65.352L664.105 79.8764C660.783 78.3101 657.057 77.0048 652.927 75.9605C648.798 74.8688 644.36 74.323 639.613 74.323C636.528 74.323 634.083 74.584 632.28 75.1062C630.523 75.5808 629.266 76.2691 628.506 77.1709C627.747 78.0727 627.367 79.1644 627.367 80.446V80.802C627.367 82.226 627.77 83.4601 628.577 84.5043C629.432 85.5485 630.974 86.4978 633.205 87.3522C635.436 88.1591 638.569 89.0372 642.603 89.9865C648.489 91.2206 653.212 92.6683 656.772 94.3296C660.332 95.9909 662.919 98.1269 664.532 100.737C666.146 103.301 666.953 106.671 666.953 110.848V111.702C666.953 118.917 664.509 124.304 659.62 127.864C654.731 131.424 647.326 133.204 637.406 133.204ZM704.994 132.99C699.061 132.99 694.314 132.112 690.754 130.356C687.242 128.552 684.703 125.847 683.136 122.239C681.57 118.632 680.787 114.194 680.787 108.925V68.2H698.871V106.22C698.871 110.017 699.725 112.817 701.434 114.621C703.19 116.377 706.252 117.255 710.619 117.255C713.182 117.255 715.65 116.994 718.023 116.472C720.396 115.903 722.58 115.167 724.573 114.265L723.007 129.501C720.634 130.593 717.905 131.448 714.819 132.065C711.782 132.682 708.506 132.99 704.994 132.99ZM670.677 76.6013V62.2193H723.933L722.366 76.6013H670.677ZM681 63.5721L680.929 45.0606L699.085 43.2094L698.373 63.5721H681ZM766.663 133.204C754.701 133.204 745.802 130.451 739.963 124.945C734.125 119.439 731.206 111.465 731.206 101.022V91.9089C731.206 81.5614 733.935 73.611 739.394 68.0576C744.852 62.5041 752.779 59.7274 763.174 59.7274C770.199 59.7274 776.061 60.9615 780.76 63.4297C785.459 65.8979 788.971 69.4103 791.297 73.967C793.67 78.4762 794.857 83.8872 794.857 90.2001V92.6921C794.857 94.4008 794.762 96.157 794.572 97.9607C794.43 99.7169 794.216 101.378 793.931 102.945H777.413C777.556 100.334 777.627 97.8658 777.627 95.54C777.675 93.1667 777.698 91.0308 777.698 89.1322C777.698 85.8571 777.176 83.0803 776.132 80.802C775.088 78.4762 773.498 76.72 771.362 75.5333C769.226 74.3467 766.496 73.7534 763.174 73.7534C758.285 73.7534 754.678 75.1062 752.352 77.8117C750.026 80.5172 748.863 84.3619 748.863 89.3458V95.8248L748.934 97.8895V103.372C748.934 105.555 749.267 107.572 749.931 109.424C750.643 111.275 751.806 112.889 753.42 114.265C755.034 115.594 757.169 116.638 759.828 117.398C762.533 118.157 765.903 118.537 769.938 118.537C774.304 118.537 778.458 118.062 782.397 117.113C786.384 116.116 790.158 114.787 793.718 113.126L792.151 127.508C788.971 129.264 785.222 130.641 780.902 131.637C776.63 132.682 771.884 133.204 766.663 133.204ZM740.889 102.945V90.8409H790.229V102.945H740.889ZM825.409 90.9121L820.781 78.7373H825.195C826.477 73.0889 828.802 68.6509 832.173 65.4232C835.543 62.1956 840.218 60.5818 846.199 60.5818C847.433 60.5818 848.548 60.6767 849.545 60.8666C850.542 61.009 851.443 61.1988 852.25 61.4361L853.247 79.6628C852.203 79.3306 850.993 79.0933 849.616 78.9509C848.24 78.761 846.792 78.6661 845.273 78.6661C840.432 78.6661 836.302 79.734 832.885 81.87C829.514 84.0059 827.023 87.02 825.409 90.9121ZM807.68 131.495V61.6497H825.053L824.27 83.0803L825.907 83.7211V131.495H807.68Z" fill="#1D1D1D"/>
<path d="M213.136 133.4C208.405 133.4 204.19 132.579 200.489 130.938C196.788 129.265 193.86 126.803 191.704 123.553C189.58 120.27 188.518 116.183 188.518 111.292C188.518 107.173 189.274 103.713 190.786 100.914C192.299 98.1139 194.358 95.8612 196.965 94.1557C199.572 92.4501 202.532 91.1629 205.847 90.294C209.194 89.4251 212.701 88.8137 216.37 88.4597C220.682 88.0092 224.158 87.5908 226.796 87.2047C229.435 86.7863 231.35 86.1749 232.541 85.3704C233.731 84.5659 234.327 83.3752 234.327 81.7983V81.5087C234.327 78.4516 233.361 76.0863 231.43 74.4129C229.532 72.7395 226.829 71.9028 223.321 71.9028C219.62 71.9028 216.676 72.7234 214.487 74.3646C212.299 75.9737 210.851 78.001 210.143 80.4468L191.124 78.9021C192.09 74.3968 193.988 70.503 196.82 67.2206C199.652 63.9059 203.305 61.3637 207.778 59.5938C212.283 57.7916 217.496 56.8906 223.417 56.8906C227.537 56.8906 231.479 57.3733 235.244 58.3387C239.041 59.3041 242.404 60.8005 245.332 62.8279C248.293 64.8553 250.626 67.4619 252.332 70.6478C254.037 73.8015 254.89 77.5827 254.89 81.9914V132H235.389V121.718H234.809C233.619 124.035 232.026 126.079 230.031 127.849C228.035 129.586 225.638 130.954 222.838 131.952C220.039 132.917 216.804 133.4 213.136 133.4ZM219.025 119.208C222.05 119.208 224.721 118.613 227.038 117.422C229.355 116.199 231.173 114.558 232.492 112.499C233.812 110.439 234.471 108.106 234.471 105.499V97.6312C233.828 98.0495 232.943 98.4357 231.817 98.7897C230.722 99.1115 229.483 99.4172 228.1 99.7068C226.716 99.9643 225.332 100.206 223.948 100.431C222.565 100.624 221.31 100.801 220.183 100.962C217.77 101.316 215.662 101.879 213.86 102.651C212.058 103.424 210.658 104.47 209.66 105.789C208.663 107.076 208.164 108.685 208.164 110.616C208.164 113.416 209.178 115.556 211.205 117.036C213.264 118.484 215.871 119.208 219.025 119.208ZM263.074 132V33.1413H283.637V70.3099H284.265C285.166 68.3147 286.469 66.2873 288.175 64.2278C289.912 62.136 292.165 60.3983 294.933 59.0145C297.732 57.5986 301.208 56.8906 305.359 56.8906C310.765 56.8906 315.753 58.3065 320.323 61.1384C324.893 63.9381 328.545 68.1699 331.281 73.8337C334.016 79.4652 335.384 86.5289 335.384 95.0245C335.384 103.295 334.048 110.278 331.377 115.974C328.738 121.638 325.134 125.934 320.564 128.862C316.027 131.759 310.942 133.207 305.311 133.207C301.32 133.207 297.925 132.547 295.126 131.228C292.358 129.908 290.089 128.251 288.32 126.256C286.55 124.228 285.198 122.185 284.265 120.125H283.348V132H263.074ZM283.203 94.928C283.203 99.3367 283.814 103.182 285.037 106.465C286.26 109.747 288.03 112.306 290.347 114.14C292.664 115.942 295.48 116.843 298.794 116.843C302.141 116.843 304.973 115.926 307.29 114.092C309.607 112.225 311.361 109.651 312.551 106.368C313.774 103.054 314.386 99.2402 314.386 94.928C314.386 90.648 313.79 86.8829 312.6 83.6326C311.409 80.3824 309.655 77.8401 307.338 76.0058C305.021 74.1715 302.173 73.2544 298.794 73.2544C295.448 73.2544 292.616 74.1394 290.299 75.9093C288.014 77.6792 286.26 80.1893 285.037 83.4395C283.814 86.6898 283.203 90.5193 283.203 94.928ZM374.449 133.448C366.854 133.448 360.321 131.839 354.851 128.621C349.412 125.371 345.229 120.866 342.3 115.105C339.404 109.345 337.956 102.716 337.956 95.2176C337.956 87.623 339.42 80.9616 342.349 75.2335C345.309 69.4732 349.509 64.984 354.947 61.7659C360.386 58.5157 366.854 56.8906 374.352 56.8906C380.82 56.8906 386.484 58.0652 391.343 60.4144C396.203 62.7635 400.048 66.062 402.88 70.3099C405.712 74.5577 407.273 79.5457 407.562 85.2738H388.158C387.611 81.5731 386.162 78.5964 383.813 76.3437C381.496 74.0589 378.455 72.9165 374.69 72.9165C371.504 72.9165 368.721 73.7854 366.339 75.5231C363.99 77.2287 362.156 79.7227 360.836 83.0051C359.517 86.2875 358.857 90.2618 358.857 94.928C358.857 99.6585 359.501 103.681 360.788 106.996C362.107 110.31 363.958 112.836 366.339 114.574C368.721 116.312 371.504 117.181 374.69 117.181C377.039 117.181 379.147 116.698 381.014 115.733C382.912 114.767 384.473 113.367 385.696 111.533C386.951 109.667 387.771 107.43 388.158 104.824H407.562C407.241 110.487 405.696 115.475 402.928 119.787C400.193 124.067 396.412 127.414 391.585 129.828C386.758 132.241 381.046 133.448 374.449 133.448Z" fill="#F85201"/>
<path d="M191.852 188.793V156.562H211.304V160.024H195.755V170.915H210.297V174.377H195.755V185.331H211.556V188.793H191.852ZM258.225 156.562H262.883L273.837 183.316H274.215L285.168 156.562H289.827V188.793H286.175V164.305H285.861L275.788 188.793H272.263L262.191 164.305H261.876V188.793H258.225V156.562ZM337.538 188.793V156.562H348.806C351.052 156.562 352.904 156.95 354.362 157.727C355.82 158.493 356.906 159.526 357.62 160.827C358.333 162.118 358.69 163.55 358.69 165.123C358.69 166.508 358.443 167.652 357.95 168.554C357.468 169.457 356.828 170.17 356.03 170.695C355.243 171.219 354.388 171.607 353.465 171.859V172.174C354.451 172.237 355.443 172.583 356.439 173.213C357.436 173.842 358.27 174.745 358.942 175.92C359.613 177.095 359.949 178.532 359.949 180.232C359.949 181.848 359.582 183.301 358.847 184.591C358.113 185.882 356.953 186.905 355.369 187.66C353.785 188.416 351.723 188.793 349.184 188.793H337.538ZM341.441 185.331H349.184C351.734 185.331 353.544 184.838 354.614 183.852C355.694 182.855 356.235 181.648 356.235 180.232C356.235 179.141 355.957 178.133 355.401 177.21C354.845 176.276 354.052 175.531 353.024 174.975C351.996 174.409 350.779 174.126 349.373 174.126H341.441V185.331ZM341.441 170.726H348.681C349.856 170.726 350.915 170.495 351.86 170.034C352.814 169.572 353.57 168.922 354.126 168.082C354.692 167.243 354.976 166.257 354.976 165.123C354.976 163.707 354.483 162.506 353.496 161.52C352.51 160.523 350.947 160.024 348.806 160.024H341.441V170.726ZM407.57 188.793H403.478L415.313 156.562H419.342L431.177 188.793H427.085L417.453 161.661H417.202L407.57 188.793ZM409.081 176.203H425.574V179.665H409.081V176.203ZM476.083 188.793V156.562H479.986V185.331H494.969V188.793H476.083ZM544.254 188.793H540.162L551.997 156.562H556.026L567.861 188.793H563.769L554.137 161.661H553.886L544.254 188.793ZM545.765 176.203H562.258V179.665H545.765V176.203ZM633.285 166.634C632.939 165.575 632.483 164.625 631.916 163.786C631.36 162.936 630.694 162.212 629.917 161.614C629.151 161.016 628.281 160.56 627.305 160.245C626.329 159.93 625.259 159.773 624.094 159.773C622.185 159.773 620.448 160.266 618.885 161.252C617.322 162.238 616.079 163.691 615.155 165.611C614.232 167.531 613.77 169.887 613.77 172.678C613.77 175.469 614.237 177.824 615.171 179.744C616.105 181.664 617.369 183.117 618.964 184.103C620.559 185.09 622.353 185.583 624.346 185.583C626.193 185.583 627.819 185.189 629.225 184.402C630.641 183.605 631.743 182.482 632.53 181.034C633.327 179.576 633.726 177.861 633.726 175.888L634.922 176.14H625.227V172.678H637.503V176.14C637.503 178.794 636.936 181.103 635.803 183.065C634.681 185.027 633.128 186.548 631.145 187.629C629.172 188.699 626.906 189.234 624.346 189.234C621.492 189.234 618.985 188.562 616.823 187.219C614.673 185.876 612.994 183.967 611.787 181.491C610.591 179.015 609.993 176.077 609.993 172.678C609.993 170.128 610.334 167.836 611.016 165.8C611.709 163.754 612.684 162.013 613.943 160.575C615.202 159.138 616.692 158.036 618.413 157.27C620.134 156.504 622.027 156.121 624.094 156.121C625.794 156.121 627.378 156.379 628.847 156.893C630.327 157.396 631.643 158.115 632.797 159.049C633.962 159.972 634.932 161.079 635.709 162.369C636.485 163.649 637.02 165.071 637.314 166.634H633.285ZM684.074 188.793V156.562H703.526V160.024H687.977V170.915H702.518V174.377H687.977V185.331H703.777V188.793H684.074ZM776.005 156.562V188.793H772.228L754.664 163.487H754.349V188.793H750.446V156.562H754.224L771.85 181.932H772.165V156.562H776.005ZM841.327 164.62C841.138 163.025 840.372 161.787 839.029 160.906C837.686 160.024 836.039 159.584 834.088 159.584C832.661 159.584 831.412 159.815 830.342 160.276C829.282 160.738 828.453 161.373 827.855 162.181C827.268 162.988 826.974 163.906 826.974 164.935C826.974 165.795 827.179 166.535 827.588 167.154C828.008 167.762 828.543 168.271 829.193 168.68C829.844 169.079 830.526 169.409 831.239 169.672C831.952 169.924 832.608 170.128 833.206 170.286L836.48 171.167C837.319 171.387 838.253 171.691 839.281 172.08C840.32 172.468 841.311 172.998 842.256 173.669C843.21 174.33 843.997 175.18 844.616 176.219C845.235 177.257 845.545 178.532 845.545 180.043C845.545 181.785 845.088 183.358 844.176 184.764C843.273 186.17 841.951 187.288 840.21 188.116C838.478 188.945 836.375 189.36 833.899 189.36C831.59 189.36 829.592 188.987 827.903 188.242C826.224 187.497 824.902 186.459 823.937 185.126C822.982 183.794 822.442 182.246 822.316 180.484H826.345C826.449 181.701 826.859 182.708 827.572 183.505C828.296 184.292 829.209 184.88 830.31 185.268C831.423 185.646 832.619 185.834 833.899 185.834C835.389 185.834 836.726 185.593 837.912 185.111C839.097 184.617 840.036 183.935 840.729 183.065C841.421 182.183 841.768 181.155 841.768 179.98C841.768 178.91 841.469 178.039 840.871 177.368C840.273 176.696 839.486 176.15 838.51 175.731C837.534 175.311 836.48 174.944 835.347 174.629L831.381 173.496C828.863 172.772 826.869 171.739 825.4 170.396C823.931 169.053 823.197 167.295 823.197 165.123C823.197 163.319 823.685 161.745 824.661 160.402C825.647 159.049 826.969 158 828.627 157.255C830.295 156.499 832.157 156.121 834.213 156.121C836.291 156.121 838.137 156.494 839.753 157.239C841.369 157.973 842.649 158.98 843.593 160.261C844.548 161.541 845.052 162.994 845.104 164.62H841.327Z" fill="#686868"/>
<path d="M144.254 112.603C139.607 87.8131 137.28 75.4144 128.455 68.0911C119.639 60.7678 107.026 60.7678 81.8071 60.7678H76.0804C50.854 60.7678 38.2487 60.7678 29.4243 68.0911C20.5998 75.4144 18.2726 87.8131 13.6181 112.603C7.08907 147.464 3.81663 164.89 13.348 176.376C22.8794 187.861 40.5998 187.853 76.0724 187.853H81.7992C117.264 187.853 135 187.853 144.532 176.376C150.06 169.704 151.283 161.046 150.052 148.139" stroke="#1D1D1D" stroke-width="14.7773" stroke-linecap="round"/>
<path d="M56.3906 92.5391C58.0316 97.1898 61.0748 101.217 65.1007 104.066C69.1266 106.914 73.937 108.444 78.8688 108.444C83.8006 108.444 88.611 106.914 92.6369 104.066C96.6628 101.217 99.706 97.1898 101.347 92.5391" stroke="#F85201" stroke-width="14.7773" stroke-linecap="round"/>
</svg>
